<?xml version="1.0" encoding="UTF-8" standalone="no"?>
<!-- Created with Inkscape (http://www.inkscape.org/) -->

<svg
   width="141"
   height="63"
   viewBox="0 0 37.30625 16.668746"
   version="1.1"
   id="svg1"
   xml:space="preserve"
   inkscape:version="1.4.2 (f4327f4, 2025-05-13)"
   sodipodi:docname="button-ring-stips.svg"
   xmlns:inkscape="http://www.inkscape.org/namespaces/inkscape"
   xmlns:sodipodi="http://sodipodi.sourceforge.net/DTD/sodipodi-0.dtd"
   xmlns="http://www.w3.org/2000/svg"
   xmlns:svg="http://www.w3.org/2000/svg"><sodipodi:namedview
     id="namedview1"
     pagecolor="#ffffff"
     bordercolor="#000000"
     borderopacity="0.25"
     inkscape:showpageshadow="2"
     inkscape:pageopacity="0.0"
     inkscape:pagecheckerboard="0"
     inkscape:deskcolor="#d1d1d1"
     inkscape:document-units="mm"
     inkscape:zoom="4"
     inkscape:cx="41.75"
     inkscape:cy="24.125"
     inkscape:window-width="1920"
     inkscape:window-height="1057"
     inkscape:window-x="-8"
     inkscape:window-y="-8"
     inkscape:window-maximized="1"
     inkscape:current-layer="layer1" /><defs
     id="defs1" /><g
     inkscape:label="Layer 1"
     inkscape:groupmode="layer"
     id="layer1"><path
       style="fill:#000000;stroke-width:0.107474"
       d="M 1.3869964,15.649256 C 0.08398632,15.120731 0.09828912,13.484783 0.20656452,12.294293 0.34521472,11.0895 0.30042222,10.188407 0.44331065,9.1815226 0.4178932,8.1247691 0.20945512,7.0166713 0.38472807,5.9801818 0.45106344,5.443963 0.15943242,4.4987921 0.25688262,3.751214 0.29307802,3.0392687 0.06614583,1.5372937 0.39184115,0.36380208 1.1319597,0.25440735 1.8116323,0.44695391 2.7663572,0.33949521 c 1.8879103,0.084292 3.7814969,-0.047935 5.662102,-0.2524308 1.7648358,0.02683 3.5298348,-0.1268557 5.2854808,-0.077061 1.549874,0.2161722 3.091233,0.2534125 4.643874,0.4688882 1.991195,0.1672228 3.990568,0.1597451 5.984566,0.2118138 1.122788,-0.096784 2.324954,-0.054325 3.501771,-0.064517 1.42649,-0.030289 2.830763,-0.2462583 4.253901,-0.2573842 1.351658,0.1516306 3.079829,-0.36826748845 4.07215,0.79275349 0.390089,2.7730083 1.053223,5.5336913 0.823723,8.3508679 -0.05402,1.1612484 -0.135616,2.1996034 -0.388098,3.2214234 0.0907,0.875643 -0.33484,1.823977 -0.471762,2.731557 -0.409132,0.920639 -1.575434,0.305453 -2.340479,0.643792 -1.277179,0.130231 -2.551645,0.196682 -3.842495,0.243238 -1.902396,-0.07019 -3.785968,0.322111 -5.692299,0.177906 -1.244957,-0.03528 -2.419023,-0.192549 -3.664639,-0.147404 -1.500932,-0.300958 -3.019786,0.141305 -4.535752,-0.09485 -1.343928,-0.06158 -2.653831,-0.227814 -4.010865,-0.193168 -1.184728,0.02387 -2.3085857,-0.210684 -3.4539103,-0.225157 -1.2686389,-0.16554 -2.5383776,0.0064 -3.7988474,-0.191125 -1.1554396,-0.05752 -2.2748963,0.009 -3.4077751,-0.0295 z M 17.38055,16.191143 c -0.09609,-0.05398 -0.05356,0.130228 0,0 z m -5.508101,-0.504188 c 2.135353,-0.273271 4.269775,0.310007 6.411154,0.125402 1.447284,-0.159134 2.862156,0.213145 4.310269,0.160021 1.271159,0.08605 2.587434,0.05347 3.835643,0.06444 1.125578,-0.05811 2.325046,-0.199747 3.490362,-0.16579 1.192271,0.0044 2.359836,-0.132591 3.535849,-0.236584 1.101745,-0.04808 2.442039,-0.04356 2.495442,-1.444112 0.483592,-1.043205 0.121349,-2.185851 0.474491,-3.204278 C 36.632957,9.6762196 36.224013,4.1430962 35.873768,3.1257115 36.071884,1.7235262 35.166283,0.56753371 33.671624,0.93410264 32.464228,0.93353814 31.238137,0.59524701 30.068264,1.057412 28.678454,0.98082314 27.277701,1.1600207 25.877302,1.1123928 24.682675,1.2470169 23.518765,1.1719345 22.351671,1.0774223 20.392362,1.1546835 18.420118,1.0365694 16.486442,0.75623782 15.294897,0.71507792 14.119231,0.55614301 12.95671,0.45887621 11.772022,0.44527221 10.553357,0.58684451 9.3374253,0.54880321 8.240871,0.38592571 7.4170429,0.71805541 6.2785159,0.73983792 4.7643834,0.83632592 3.2488213,0.74975392 1.7494799,0.94291654 0.3891721,0.73121817 0.47370069,2.1237917 0.6671504,3.0104928 1.147107,5.2439584 1.082025,7.4026178 0.93657623,9.6382905 0.90013923,11.008098 0.80030218,12.38719 0.74052455,13.752516 c 0.0830453,1.64129 1.54041475,1.376496 2.68887835,1.287647 1.2599111,0.186676 2.533406,0.27207 3.7832209,0.229307 1.3226607,0.05943 2.6120454,0.372315 3.9409332,0.31631 0.241748,-0.02208 0.486389,0.153661 0.718893,0.101128 z m 23.948997,-0.724396 c -0.02909,-0.105547 -0.07515,0.09763 0,0 z M 10.868171,0.26262921 c -0.06741,-0.105574 -0.07771,0.09824 0,0 z"
       id="path2"
       sodipodi:nodetypes="ccccccccccccccccccccccccccccccccccccccccccccccccccccccccccc" /></g></svg>
