<?xml version="1.0" encoding="UTF-8" standalone="no"?>
<!-- Created with Inkscape (http://www.inkscape.org/) -->

<svg
   width="141"
   height="63"
   viewBox="0 0 37.30625 16.668746"
   version="1.1"
   id="svg1"
   xml:space="preserve"
   inkscape:version="1.4.2 (f4327f4, 2025-05-13)"
   sodipodi:docname="button-ring.svg"
   xmlns:inkscape="http://www.inkscape.org/namespaces/inkscape"
   xmlns:sodipodi="http://sodipodi.sourceforge.net/DTD/sodipodi-0.dtd"
   xmlns="http://www.w3.org/2000/svg"
   xmlns:svg="http://www.w3.org/2000/svg"><sodipodi:namedview
     id="namedview1"
     pagecolor="#ffffff"
     bordercolor="#000000"
     borderopacity="0.25"
     inkscape:showpageshadow="2"
     inkscape:pageopacity="0.0"
     inkscape:pagecheckerboard="0"
     inkscape:deskcolor="#d1d1d1"
     inkscape:document-units="mm"
     inkscape:zoom="2.8284271"
     inkscape:cx="-14.849242"
     inkscape:cy="51.088465"
     inkscape:window-width="1920"
     inkscape:window-height="1057"
     inkscape:window-x="-8"
     inkscape:window-y="-8"
     inkscape:window-maximized="1"
     inkscape:current-layer="layer1" /><defs
     id="defs1" /><g
     inkscape:label="Layer 1"
     inkscape:groupmode="layer"
     id="layer1"><path
       id="path2"
       style="fill:#000000;stroke-width:0.107474"
       d="m 13.546977,0.00568441 c -0.890417,-0.01890204 -1.782987,0.01143414 -2.676839,0.04082438 -0.0023,0.0693513 -0.0052,0.13840333 -0.0078,0.20773926 0.0018,0.002456 0.0038,0.00535 0.0057,0.008268 -0.0021,0.002617 -0.0043,0.005035 -0.0062,0.007235 -0.0013,0.0344583 -0.0024,0.0688988 -0.0036,0.10335286 l -0.0057,0.15399577 c 0.708236,-0.0312201 1.411946,-0.0761628 2.104264,-0.0682129 0.158798,0.0132865 0.317685,0.0277681 0.476973,0.0428914 0.03595,-0.16573011 0.07365,-0.33117983 0.113172,-0.49609375 z M 9.3461995,0.08629964 C 9.0402443,0.09049626 8.7344164,0.09146824 8.4284261,0.08681641 8.0849932,0.12416108 7.7411543,0.15902557 7.3969645,0.19068604 c 0.00121,0.0108275 0.0024,0.0217323 0.00362,0.0325562 0.018166,0.13473054 0.035375,0.2697078 0.052193,0.40462646 0.6149878,-0.088153 1.1928616,-0.18018449 1.8763712,-0.0800985 1.768e-4,-0.00594 2.903e-4,-0.0121012 5.168e-4,-0.0180868 0.00269,-0.0708643 0.00559,-0.14152584 0.00827,-0.21239014 0.00282,-0.0769302 0.00553,-0.15405974 0.00827,-0.23099365 z m 5.7288495,0.07648112 c -0.0063,0.0237004 -0.0125,0.0475612 -0.0186,0.0713135 -0.03424,0.13891007 -0.06686,0.27841997 -0.09819,0.41806234 0.506532,0.0469222 1.01584,0.0861754 1.528072,0.10386962 0.293642,0.0425703 0.58842,0.081299 0.883667,0.11627198 0.05426,-0.16473492 0.10893,-0.32887874 0.166398,-0.4924764 -0.821673,-0.0868491 -1.6411,-0.14160338 -2.461347,-0.21704104 z M 5.8797445,0.30592448 C 5.1339354,0.34944068 4.3872359,0.3714238 3.6411214,0.36328532 3.6273096,0.51343018 3.6164598,0.66390092 3.6075317,0.81442057 4.3822139,0.79328371 5.1591461,0.79581284 5.9360718,0.75912679 5.9207275,0.63596359 5.9049538,0.51263854 5.8885295,0.3896403 5.8855195,0.361828 5.8826645,0.33375798 5.8797445,0.30592448 Z M 0.80770264,0.3302124 C 0.66974493,0.33337001 0.41409899,0.32637978 0.35450033,0.4547526 0.19489031,0.79854539 0.0394179,1.7456504 0.12379724,2.121271 0.15006943,2.2382235 0.298123,2.2322335 0.37604483,2.1926783 0.53598784,2.1114868 0.52998132,1.8251967 0.5633237,1.6882073 0.64241209,1.3632672 0.63741805,1.0766165 0.69477874,1.00698 0.87528279,0.78784628 1.2832655,0.87057628 1.7492472,0.94309489 1.859081,0.92894483 2.0200718,0.86617761 2.0789429,0.77256266 2.1734925,0.62221297 2.1138657,0.46187677 1.9482015,0.39790853 1.503083,0.22603406 1.2215758,0.32073959 0.80770264,0.3302124 Z M 32.098299,0.36896973 c -0.47349,0.003702 -0.945092,0.0299315 -1.415934,0.0645955 -0.0056,0.0385241 -0.01051,0.0772419 -0.0155,0.11575521 -0.01378,0.11396342 -0.02378,0.22813301 -0.03152,0.34261474 0.883461,-0.17479556 1.791291,-0.006413 2.692859,0.0341065 -0.0061,-0.1082753 -0.0135,-0.21648865 -0.02325,-0.324528 -0.0067,-0.0689782 -0.01201,-0.14023315 -0.0217,-0.21083984 -0.408044,0.0110377 -0.810984,0.0202468 -1.184941,-0.0217041 z m 2.719214,0.0744141 c 0.01697,0.1803453 0.02873,0.36069953 0.03721,0.54156901 0.674128,0.27168616 1.062965,0.97792126 1.045414,1.81642656 0.122846,-0.06264 0.249916,-0.1165843 0.376721,-0.1705322 0.03804,-0.016181 0.07533,-0.030689 0.112138,-0.043925 C 36.311959,2.1120427 36.237262,1.6369683 36.170402,1.1616862 35.801999,0.73060782 35.331899,0.53141015 34.817513,0.44338383 Z m -15.71687,0.0904338 c -0.0028,0.007263 -0.0055,0.0144427 -0.0083,0.0217041 -0.05884,0.15377773 -0.114038,0.30893537 -0.167432,0.46457117 0.896422,0.063721 1.796325,0.090329 2.694926,0.076998 0.01624,-0.073466 0.03186,-0.14689227 0.04703,-0.22065843 0.01951,-0.0800527 0.03978,-0.1599036 0.06149,-0.23926188 -0.876343,-0.0196515 -1.752737,-0.0474234 -2.627746,-0.10335286 z m 10.035046,0.0248047 c -0.429122,0.0323853 -0.859344,0.0585228 -1.291394,0.0676961 -0.149776,0.001297 -0.29971,0.001561 -0.450101,0.00155 -0.0075,0.0983188 -0.01614,0.19678229 -0.02429,0.29507243 -0.005,0.0588611 -0.01003,0.11786954 -0.01499,0.17673344 0.583764,-0.021864 1.167103,-0.053803 1.748731,-0.060461 0.0072,-0.16048562 0.01698,-0.32069108 0.03204,-0.48059089 z m -3.267501,0.0687297 c -0.51806,0.004966 -1.029968,0.020804 -1.526005,0.063562 -0.342549,-0.008945 -0.685066,-0.0161168 -1.027844,-0.0227376 -0.05774,0.15340681 -0.104214,0.31043426 -0.144694,0.46973877 0.879412,0.056564 1.761599,0.077125 2.66082,-0.020154 9.42e-4,-0.043009 0.0033,-0.087266 0.0072,-0.13280844 0.0053,-0.0625416 0.01072,-0.12504385 0.01602,-0.18758545 0.0047,-0.0565988 0.0097,-0.11342605 0.01447,-0.17001546 z M 0.85266113,4.0447144 c -0.14588685,0.011392 -0.29150742,0.023769 -0.43718261,0.037724 -0.0595713,0.00561 -0.11923451,0.011355 -0.17880046,0.017053 0.001727,0.5309941 0.12722702,1.109486 0.15296224,1.5539103 0.0814525,0.00981 0.16304499,0.019894 0.24442952,0.029456 0.12676852,0.014765 0.25358863,0.029755 0.38033858,0.044958 C 0.98605137,5.1684223 0.93464927,4.608266 0.85266113,4.0447144 Z m 35.78696287,0.08785 c -0.0195,0.00933 -0.03863,0.019032 -0.05788,0.028939 -0.158024,0.078931 -0.314078,0.1631597 -0.468705,0.2485636 0.06655,0.5079775 0.129531,1.1116939 0.183968,1.7471802 0.179912,-0.020142 0.359321,-0.045956 0.538985,-0.065629 0.024,-0.00256 0.04782,-0.00529 0.07183,-0.00775 -0.07147,-0.651691 -0.166034,-1.3018936 -0.268201,-1.9513021 z M 0.31936035,7.1773397 C 0.33465115,7.663398 0.38517015,8.1543242 0.41754555,8.639266 0.5194162,8.652788 0.62123712,8.665526 0.72347003,8.67699 L 0.9110555,8.69611 c 0.0273,0.0028 0.0538948,0.00613 0.0800985,0.00982 C 1.0159504,8.2230318 1.0340074,7.7427826 1.0402466,7.2636393 0.84580297,7.2400303 0.65141451,7.216547 0.45681966,7.1938761 0.41110085,7.1885045 0.36511123,7.1830113 0.31936035,7.1773397 Z M 37.026164,7.6010864 c -0.0084,8.763e-4 -0.01693,0.00169 -0.02532,0.00258 -0.198106,0.021439 -0.39591,0.050147 -0.594279,0.07183 0.04471,0.7577306 0.07231,1.4901291 0.07493,2.0934123 0.04701,-0.00485 0.09406,-0.0095 0.141077,-0.013953 0.120794,-0.00879 0.240948,-0.021092 0.361218,-0.034623 0.0035,-0.068834 0.0071,-0.1380439 0.01033,-0.2077392 0.05212,-0.6398231 0.05835,-1.276708 0.03204,-1.9115113 z M 0.34933268,10.164754 c -0.0374876,0.622603 -0.0488716,1.25739 -0.12919108,2.008663 0.0589183,-0.0024 0.11781351,-0.0046 0.1767334,-0.0067 0.14177858,-0.0048 0.28348071,-0.0092 0.42529704,-0.01292 0.0352557,-0.644357 0.0705541,-1.289704 0.0950846,-1.933732 -0.0520896,-0.0013 -0.10591187,-0.0046 -0.16174723,-0.01033 -0.0675744,-0.007 -0.13499721,-0.01367 -0.20257161,-0.02067 -0.0678653,-0.0077 -0.13586542,-0.01583 -0.20360515,-0.02429 z M 36.864933,11.261328 c -0.03403,0.003 -0.06824,0.0058 -0.102319,0.0083 -0.142684,0.01282 -0.28506,0.02929 -0.427364,0.04548 -0.124101,0.592226 -0.07068,1.216861 -0.126607,1.832963 0.135299,0.0014 0.270754,-0.0028 0.40566,-0.0093 0.0073,-0.136296 0.0055,-0.271283 -0.0083,-0.404627 0.119454,-0.483439 0.200773,-0.970652 0.258899,-1.472778 z m -36.12130914,2.41639 c -0.0979307,0.0028 -0.19563325,0.006 -0.29352213,0.0093 -0.0884188,0.0031 -0.17670245,0.0065 -0.2651001,0.01033 0.0778493,0.832101 0.3736421,1.615824 1.20199377,1.951819 0.3841683,0.01306 0.7668279,0.01406 1.1498007,0.01189 0.017788,-0.18662 0.040954,-0.372401 0.073897,-0.557072 -0.9260241,0.04639 -1.80616883,-0.08643 -1.87017013,-1.351339 0.001092,-0.02494 0.001983,-0.04998 0.003101,-0.07493 z M 35.872746,14.65647 c -0.309408,0.933839 -1.45431,0.93571 -2.416907,0.977718 -0.02089,0.0018 -0.04164,0.0038 -0.06253,0.0057 0.02282,0.151025 0.03795,0.303331 0.05323,0.454753 8.4e-4,0.01604 0.0018,0.03206 0.0031,0.04806 0.114689,-0.0107 0.229448,-0.02189 0.344165,-0.03359 0.765045,-0.338339 1.931294,0.276751 2.340426,-0.643888 0.03967,-0.262936 0.103531,-0.52937 0.172082,-0.796334 -0.144827,0.0013 -0.289399,-0.0018 -0.433565,-0.0124 z m -0.07338,0.274918 h 5.17e-4 c 3.34e-4,9e-6 10e-4,1.2e-5 10e-4,0 h 5.16e-4 c 2.35e-4,1.9e-5 0.0013,-4.1e-5 0.0016,0 h 5.16e-4 c 2.39e-4,8.8e-5 0.0013,4.06e-4 0.0016,5.17e-4 0.0053,0.003 0.01154,0.01235 0.01654,0.03049 -0.01468,0.01907 -0.02506,0.02673 -0.03152,0.02739 h -5.16e-4 c -2.36e-4,-1.7e-5 -0.0013,3.7e-5 -0.0016,0 h -5.16e-4 l -5.17e-4,-5.17e-4 h -5.17e-4 l -5.17e-4,-5.17e-4 h -5.16e-4 -5.17e-4 l -5.17e-4,-5.17e-4 v -5.16e-4 c -0.0084,-0.01095 8.79e-4,-0.05079 0.01447,-0.05581 z M 4.1491007,15.134993 c -0.00818,0.05115 -0.016705,0.102471 -0.025321,0.153479 -0.023789,0.121957 -0.042289,0.244598 -0.056844,0.367937 0.2411805,0.0032 0.4836647,0.01008 0.7276042,0.02222 0.412346,0.06462 0.8256925,0.08995 1.2397176,0.100252 0.00983,-0.168429 0.018118,-0.33727 0.019637,-0.505912 -0.6334233,-0.01694 -1.2699564,-0.06402 -1.9047933,-0.137977 z m 3.4256307,0.15658 c -0.00152,0.168054 -0.00839,0.335996 -0.01757,0.503845 0.3454784,0.0093 0.691148,0.02933 1.0366292,0.07441 0.5954458,0.0075 1.184935,0.07455 1.7802534,0.133842 0.0042,-0.140783 0.0087,-0.281573 0.01654,-0.422196 C 9.4476494,15.536572 8.5181,15.363635 7.5747314,15.291573 Z M 13.061735,15.613 c -0.38434,0.002 -0.768532,0.02178 -1.152901,0.06925 -0.0077,0.138018 -0.01211,0.276314 -0.01602,0.414445 0.05135,-9.9e-5 0.102938,4.39e-4 0.154513,-0.0016 0.722447,-0.01845 1.431359,0.02003 2.139404,0.06925 0.0059,-0.126178 0.01273,-0.252457 0.02274,-0.378271 0.0019,-0.04491 0.004,-0.08988 0.0057,-0.134876 -0.38441,-0.02449 -0.769078,-0.04025 -1.153418,-0.03824 z m 2.670638,0.157614 c -9.59e-4,0.02571 -0.0021,0.0513 -0.0031,0.077 -0.0095,0.140475 -0.01702,0.281006 -0.02429,0.42168 0.117552,0.0068 0.235448,0.0132 0.353466,0.0186 0.360328,0.05613 0.720706,0.07376 1.081071,0.07235 -0.01979,-0.172382 -0.04063,-0.344842 -0.07183,-0.514698 -0.445254,-0.01 -0.890441,-0.03967 -1.335319,-0.07493 z m 16.142167,0.0078 c -0.64411,0.05399 -1.290219,0.09442 -1.94355,0.0925 v 0.138493 0.297656 c 0,0.01506 -2.16e-4,0.0302 -5.17e-4,0.04496 0.0069,2.42e-4 0.01381,2.64e-4 0.02067,5.17e-4 0.664324,-0.02396 1.324534,-0.05301 1.982825,-0.09353 -2.94e-4,-0.0042 -0.001,-0.0087 -0.001,-0.01292 -0.01536,-0.155305 -0.02721,-0.31409 -0.0584,-0.467672 z m -13.275675,0.0072 c 0.02538,0.168458 0.04451,0.338201 0.06408,0.507462 0.645832,-0.03179 1.290208,-0.03859 1.931148,0.08992 0.04198,-0.0015 0.08375,-0.0031 0.125574,-0.0041 -4.1e-5,-0.0018 4e-5,-0.0034 0,-0.0052 -0.0039,-0.165199 -0.0073,-0.330785 -0.01344,-0.496094 -0.700976,-0.06663 -1.400913,-0.134602 -2.107362,-0.092 z m 9.81077,0.118339 c -0.670751,0.03943 -1.33752,0.09963 -1.98024,0.132808 -0.151746,-0.0013 -0.304306,-0.0022 -0.457854,-0.0026 3.93e-4,0.0041 0.001,0.0083 0.001,0.0124 0.01939,0.186527 0.01252,0.352019 -0.01447,0.496094 0.818354,-0.03745 1.634691,-0.119269 2.452564,-0.165365 -7.46e-4,-0.02302 -10e-4,-0.04651 -10e-4,-0.07028 v -0.297656 z m -5.815665,0.06821 c -0.121044,0.0044 -0.24163,0.0061 -0.362252,0.0052 0.0035,0.120122 0.0059,0.240075 0.0088,0.360185 5.87e-4,0.0259 10e-4,0.05161 0.0015,0.07752 0.666645,0.03921 1.331143,0.0958 2.016931,0.115238 0.08849,0.0067 0.176706,0.01205 0.2651,0.01654 -0.03116,-0.105865 -0.05359,-0.223819 -0.06563,-0.354501 -0.0049,-0.05339 -0.009,-0.106794 -0.01188,-0.160197 -0.619626,-0.0046 -1.241203,-0.01856 -1.8526,-0.05994 z"
       sodipodi:nodetypes="cccccccccccsccccccccscccccccccccccsssasscssssccccccsscccscccccccccccccccccscccccccccccccccccscccccssccccccccccccccccccccccccccccccccccscccccccscccccccccccccccccccccccccccccccscccccsscccccccccccccccscccccsssccscccccssccccccsccccccscccccccccccc" /></g></svg>
