<?xml version="1.0" encoding="UTF-8" standalone="no"?>
<!-- Created with Inkscape (http://www.inkscape.org/) -->

<svg
   width="130"
   height="50"
   viewBox="0 0 34.395837 13.229167"
   version="1.1"
   id="svg1"
   xml:space="preserve"
   inkscape:version="1.4.2 (f4327f4, 2025-05-13)"
   sodipodi:docname="button.svg"
   xmlns:inkscape="http://www.inkscape.org/namespaces/inkscape"
   xmlns:sodipodi="http://sodipodi.sourceforge.net/DTD/sodipodi-0.dtd"
   xmlns="http://www.w3.org/2000/svg"
   xmlns:svg="http://www.w3.org/2000/svg"><sodipodi:namedview
     id="namedview1"
     pagecolor="#ffffff"
     bordercolor="#000000"
     borderopacity="0.25"
     inkscape:showpageshadow="2"
     inkscape:pageopacity="0.0"
     inkscape:pagecheckerboard="0"
     inkscape:deskcolor="#d1d1d1"
     inkscape:document-units="mm"
     inkscape:zoom="8"
     inkscape:cx="72"
     inkscape:cy="46.0625"
     inkscape:window-width="1920"
     inkscape:window-height="1057"
     inkscape:window-x="-8"
     inkscape:window-y="-8"
     inkscape:window-maximized="1"
     inkscape:current-layer="layer1" /><defs
     id="defs1" /><g
     inkscape:label="Layer 1"
     inkscape:groupmode="layer"
     id="layer1"><path
       style="fill:#000000;stroke-width:0.108734"
       d="M 8.8293817,13.145169 C 7.5304927,12.94729 6.2384125,12.758309 4.9489653,12.58626 3.6613918,12.428169 2.2707583,13.005964 1.0556551,12.407635 -0.03404043,12.387841 0.35990159,11.069947 0.36600259,10.320182 0.39255719,9.148838 0.16258159,8.012813 0.23421629,6.8736267 0.15786209,5.6253108 -0.08652243,4.3946602 0.03180619,3.1320703 0.10515529,2.0737735 0.03304889,1.477065 0.20051049,0.47158519 0.61880939,-0.02232408 1.3987273,0.43723225 2.2164175,0.22006462 3.3863456,-0.06208866 4.5961726,0.00416836 5.7994187,0.01293226 c 1.3715495,0.15139347 2.78497,-0.0037761 4.1522763,0.29545924 2.100279,0.18331625 4.208563,-0.0514752 6.305654,0.0757202 1.691756,-0.10494753 3.386971,-0.20834966 5.08173,-0.14266498 1.289531,-0.0335802 2.584997,0.18717499 3.889403,0.13183332 1.065458,0.0336105 2.211136,0.0284558 3.180942,-0.0272522 1.279429,0.0638523 2.553471,-0.0517046 3.837283,-0.0106309 1.186483,-0.52087729 1.585881,0.58858531 1.482468,1.56847556 0.149663,1.5947673 0.544895,3.1690581 0.302969,4.7832773 -0.09644,1.1050934 -0.008,2.2451972 0.246346,3.3114076 0.132337,0.9402966 0.01028,2.4679886 -1.152077,2.6501196 -1.18103,0.02773 -2.336215,0.136977 -3.501321,-0.04363 -0.922626,-0.01694 -1.869012,0.06811 -2.813767,0.103116 -1.081607,0.240318 -2.683607,0.03338 -3.48883,0.135891 -1.445118,0.210646 -2.965391,0.293846 -4.439296,0.158671 -1.525223,0.284977 -3.049473,-0.125458 -4.560342,-0.233747 -1.463913,0.208351 -2.899183,0.248796 -4.374854,0.398704 -0.372132,-0.002 -0.748949,0.03059 -1.1186218,-0.02251 z m 1.1775563,-0.08904 c -0.02983,-0.106695 -0.07567,0.09906 0,0 z M 3.1062607,12.502461 c -0.068593,-0.106523 -0.078255,0.09965 0,0 z m 6.6296923,0.273848 c 1.012757,-0.0572 2.134953,-0.09691 3.075342,-0.07841 1.152636,-0.224746 2.426351,-0.478087 3.58516,-0.07661 1.495139,0.243581 3.010762,-0.01984 4.504329,0.08077 1.279711,-0.122139 2.569759,-0.09165 3.840873,-0.276972 0.990794,0.02281 1.857308,-0.187953 2.871588,-0.108167 1.050064,-0.153088 2.224732,0.03358 3.186901,-0.285783 0.813804,0.164913 1.651638,0.172224 2.585224,-0.11677 0.574581,-1.04451 0.129757,-2.267414 0.206223,-3.3995414 0.09554,-0.8061612 0.114068,-1.9748612 0.199324,-2.7543761 C 33.779477,5.1130158 33.820837,4.2989029 33.677375,3.6094592 33.338883,2.7835225 33.361442,1.7174831 32.94537,1.0262886 32.011487,0.66452788 30.67241,0.98018623 29.57679,0.83785298 28.25887,0.71680159 26.933665,0.96870733 25.604821,0.85816847 24.32969,0.84288935 23.077583,0.7384469 21.794616,0.74638255 20.647934,0.8797313 19.502541,0.67504539 18.367978,0.75748731 17.46155,0.94617683 16.545943,0.91522874 15.616154,0.87893173 14.384386,0.85938967 13.117916,0.82543104 11.915082,0.77445618 10.708239,0.89658801 9.446038,0.60377209 8.290104,0.53202165 7.1427615,0.41539875 5.8953123,0.45023076 4.7021089,0.45131524 3.4874593,0.33653758 2.3246766,0.82388001 1.1154944,0.76975703 0.42137089,1.4232705 0.83496729,2.7984627 0.74084759,3.7281831 c -0.033459,0.7815031 0.020404,1.6544815 0.076111,2.5262758 0.1497847,0.5544145 -0.1795083,2.0910168 0.042154,1.9870063 0.17031091,1.2057861 -0.032787,2.4242108 -0.039955,3.6349598 1.10623711,0.546504 2.38734091,0.100042 3.56815291,0.193414 1.7353902,0.127471 3.4281934,0.53146 5.1516497,0.72269 l 0.196994,-0.01622 z m 20.102043,-0.536645 c -0.110966,-0.06572 -0.0299,0.06349 0,0 z M 0.69387579,5.5924439 c -0.1056495,-0.1082052 -0.078645,0.1029909 0,0 z M 0.62152209,5.151641 c -0.097367,-0.1556509 -0.1026075,0.1233502 0,0 z m -0.041946,-2.430239 c -0.1160964,-0.1573438 -0.011478,0.1497997 0,0 z m 0.1007266,-0.5280979 c -0.068594,-0.1065334 -0.078253,0.099655 0,0 z m 0.066432,-0.8033123 c -0.02983,-0.1066985 -0.075673,0.099051 0,0 z M 7.6091027,0.30515381 c -0.1559476,0.0536843 0.019626,0.22439009 0,0 z"
       id="path1" /></g></svg>
