<?xml version="1.0" encoding="UTF-8" standalone="no"?>
<!-- Created with Inkscape (http://www.inkscape.org/) -->

<svg
   width="453mm"
   height="90mm"
   viewBox="0 0 453 90"
   version="1.1"
   id="svg1"
   inkscape:version="1.3.2 (091e20e, 2023-11-25)"
   sodipodi:docname="eugenesafaris.svg"
   xmlns:inkscape="http://www.inkscape.org/namespaces/inkscape"
   xmlns:sodipodi="http://sodipodi.sourceforge.net/DTD/sodipodi-0.dtd"
   xmlns="http://www.w3.org/2000/svg"
   xmlns:svg="http://www.w3.org/2000/svg">
  <sodipodi:namedview
     id="namedview1"
     pagecolor="#ffffff"
     bordercolor="#000000"
     borderopacity="0.25"
     inkscape:showpageshadow="2"
     inkscape:pageopacity="0.0"
     inkscape:pagecheckerboard="0"
     inkscape:deskcolor="#d1d1d1"
     inkscape:document-units="mm"
     inkscape:zoom="0.33859709"
     inkscape:cx="865.33526"
     inkscape:cy="212.64211"
     inkscape:window-width="1312"
     inkscape:window-height="449"
     inkscape:window-x="131"
     inkscape:window-y="371"
     inkscape:window-maximized="0"
     inkscape:current-layer="layer1" />
  <defs
     id="defs1" />
  <g
     inkscape:label="Layer 1"
     inkscape:groupmode="layer"
     id="layer1">
    <path
       d="m 30.678062,0.27936566 c -2.454978,0.08234 -4.126559,0.27747497 -4.126559,0.27747497 0,0 -13.474904,0.98655197 -19.2936216,4.03858497 -3.081663,1.6163968 -5.408348,3.8213503 -4.339732,7.1330964 0.500421,1.550866 3.097624,0.847912 3.672285,0.718211 1.021436,-0.230558 -0.149952,-1.777595 0.341761,-2.8863987 C 7.7113854,7.8030895 8.6800444,7.6622565 9.8177435,7.2246468 13.311283,5.8808814 20.275391,6.2814114 20.275391,6.2814114 c 0,0 -5.301139,9.6354336 -7.870741,13.7120796 -2.4858865,3.943867 -7.7631576,11.957157 -9.3536886,15.831205 -3.00084402,7.309193 -3.49910402,11.254681 -1.673284,16.941944 0.982885,3.06161 2.972965,5.02499 6.266803,5.919999 6.1902406,1.682026 11.7555456,-2.436594 17.1482876,-5.42935 2.123317,-1.178345 6.046868,-4.501322 6.046868,-4.501322 0,0 0.272761,4.286233 1.877175,5.827785 1.09096,1.048235 2.838631,1.538835 4.403166,1.679226 1.190149,0.106736 2.450804,-0.134072 3.523397,-0.660703 3.087198,-1.515867 7.705779,-6.861533 7.705779,-6.861533 l 3.302596,-4.490338 c 0,0 -1.070941,4.894388 0,6.947838 0.662291,1.26992 2.11821,2.83827 3.484469,3.267922 1.890239,0.59442 4.631528,-0.831607 6.48422,-1.617459 3.126658,-1.326235 7.498528,-5.502101 7.498528,-5.502101 0,0 2.131981,3.353999 1.802717,4.862548 -0.52297,2.39611 -4.441176,2.169137 -5.42255,4.416737 -0.412644,0.945053 -0.856023,2.518642 0,3.093663 2.243837,1.507223 7.506981,-3.066603 7.506981,-3.066603 l 10.68691,-1.731659 c 0,0 -4.08605,9.206716 -7.542408,14.08547 -3.576097,5.047793 -11.076738,15.269906 -16.29704,15.439633 -1.328414,0.04322 -1.199508,-0.530462 -1.715728,-1.710248 -0.531477,-1.214638 1.078073,-2.946952 -0.223503,-3.369271 -1.601517,-0.519624 -3.061103,-1.482096 -3.800824,0.03044 -1.459767,2.984851 -0.307041,7.390865 2.537794,9.107562 3.322849,2.005158 6.610187,-0.964174 10.007995,-2.839531 8.659812,-4.779616 12.234954,-13.735999 16.633524,-22.173674 1.23095,-2.361274 4.52531,-9.589992 4.52531,-9.589992 0,0 10.95348,-0.510015 16.984526,-2.239447 2.79306,-0.80093 8.65602,-2.541642 8.65602,-2.541642 0,0 4.03698,2.061012 6.18812,1.896638 2.77082,-0.211749 5.17383,-2.116229 7.50698,-3.625761 4.77794,-3.091304 13.07334,-10.97966 13.07334,-10.97966 0,0 -2.73674,4.429685 -3.27637,7.290449 -0.35957,1.906166 -1.01491,4.628781 0.85441,5.819322 1.67234,1.06508 5.51415,-2.990906 6.90212,-3.867712 2.5775,-1.628233 5.56207,-5.408167 8.06361,-7.964658 4.82236,-4.92829 8.49167,-8.847845 8.49167,-8.847845 0,0 -2.5354,11.460108 -0.13358,16.354006 3.6417,7.312843 7.73388,8.257635 14.85745,6.065497 2.74229,-0.967988 5.47525,-3.320881 5.98003,-3.234086 0.50388,0.0866 0.49139,2.066005 2.22318,3.330523 1.95646,1.428597 5.75012,2.151867 7.76159,2.064974 6.84407,-0.295679 11.46999,-0.136528 10.93393,-3.977688 -0.52426,-3.756722 -6.21337,0.269143 -11.35014,-0.813813 -2.88622,-0.608482 -5.65876,-2.581978 -5.65012,-2.818708 0.0325,-0.894421 3.67175,-2.246454 5.35235,-5.008914 2.29055,-3.765055 2.6801,-9.169572 1.38567,-10.544819 -1.15099,-1.22284 -5.1143,-0.420633 -8.51788,2.841561 -1.57145,1.50616 -3.02099,4.364385 -3.79073,7.259134 -0.37271,1.401717 0.22303,3.283949 -0.50332,4.124888 -2.87309,3.326267 -8.13791,2.404722 -10.09475,2.073437 -4.17049,-0.706064 -4.15164,-13.379799 -4.86677,-19.343617 -0.63348,-5.282838 -2.22147,-3.975134 -2.22147,-3.975134 0,0 -21.32241,21.956748 -22.02858,21.956765 -1.02404,0 0.48595,-4.787376 1.32139,-7.015512 1.56713,-4.179664 6.62723,-7.907608 6.58826,-12.371242 -0.008,-0.83683 -0.64509,-1.649595 -1.11328,-1.316313 -0.86827,0.618107 -13.19008,13.192667 -13.19008,13.192667 0,0 -5.37092,6.030612 -8.98231,7.5104 -2.03808,0.835094 -6.58572,0.537172 -6.58572,0.537172 0,0 2.83192,-2.424562 3.30529,-4.301622 1.14129,-4.525517 3.27959,-11.558643 -0.86234,-14.705506 -1.59638,-1.21287 -3.63778,-0.996243 -5.30709,0 -3.52792,2.105424 -4.50269,5.368024 -5.88893,9.235508 -0.54531,1.521319 -0.96098,3.141791 -0.93308,4.757648 0.0363,2.103967 1.42795,6.149247 1.42795,6.149247 0,0 -7.56581,1.902058 -11.430196,2.339193 -3.15767,0.357181 -9.53081,0.223207 -9.53081,0.223207 0,0 5.17446,-9.966278 4.91076,-17.162746 -0.11045,-3.014725 -1.31583,-4.645001 -2.52601,-6.293892 -1.62608,-2.215563 -6.46222,0.807036 -6.46222,0.807036 0,0 -1.70056,-3.11095 -4.201,-1.898325 -5.239943,2.541168 -11.823015,15.83628 -11.823015,15.83628 0,0 -7.767141,11.629641 -12.738351,9.53137 -3.123374,-1.318311 -1.677277,-5.698313 -1.320537,-9.791067 0.339928,-3.899733 5.210971,-13.448715 3.30513,-13.87367 -1.282195,-0.285905 -0.327958,-0.758433 -2.263754,0.636999 -1.311993,0.945773 -2.008006,4.322147 -2.802633,5.643371 -1.962381,3.262735 -3.155788,5.764548 -5.705959,9.321586 -2.581748,3.601091 -7.535691,10.777342 -11.629296,9.434933 -1.662103,-0.545062 -1.146555,-1.080631 -1.084513,-5.203474 0.01637,-1.03486 3.12809,-3.442151 4.039421,-5.023287 0.660375,-1.145703 -0.768059,-1.583197 -0.877248,-2.070899 -0.17783,-0.794251 -4.094408,3.596425 -4.084259,2.894862 0.07923,-5.477905 5.190347,-11.7718 5.403094,-16.807426 0.04633,-1.096119 -0.1123,-1.324745 -0.800275,-1.613237 -2.230396,-0.935396 -5.063379,0.771708 -7.397839,1.404287 -6.860141,1.858888 -19.619684,6.771739 -20.425508,6.11963 C 9.8674755,30.459099 25.807149,6.2814374 25.807149,6.2814374 c 0,0 4.133237,-1.2197454 9.415453,-1.4271244 4.304062,-0.1689904 9.74402,0.8111447 11.283296,-0.2258764 C 49.221424,2.7989976 42.747195,1.1481586 39.506495,0.68036263 36.371956,0.22790666 33.133122,0.19711366 30.678144,0.27939066 Z m 2.85086,29.22011834 c 0,0 -1.030458,4.449527 -1.660614,6.643286 -0.876019,3.049757 -1.399802,7.160109 -2.943907,9.052574 -2.657691,3.257282 -4.543918,3.86758 -11.03543,6.86831 -3.457474,1.598225 -8.6270785,3.833629 -11.2266386,1.11581 -3.83124,-4.005533 -1.53304,-14.099286 2.377972,-16.457205 z m 46.769832,-0.512549 c 0.54572,-0.282582 1.84721,-0.08971 1.84247,-0.06548 -0.63837,3.273289 -6.675375,7.724109 -7.35557,7.306865 -0.846978,-0.519542 2.819096,-5.846432 5.5131,-7.241417 z m 5.69018,2.149474 c 1.82173,-0.171298 2.01811,2.515614 1.59292,5.238997 -0.97703,6.258062 -9.861413,17.264374 -13.606284,13.23751 -2.338375,-2.514468 -0.331611,-7.685496 -0.331611,-7.685496 0,0 9.405245,-10.514583 12.344975,-10.791011 z m 33.790606,-2.440961 c 0.47664,-6.6e-5 0.56068,1.597256 0.49167,3.75351 -0.0462,1.442005 -0.2022,3.507026 -0.20167,4.131043 0.004,6.512783 -4.62882,9.786878 -6.42178,7.891794 -0.36185,-0.382457 -1.29543,-2.42705 -1.44686,-4.259501 -0.11968,-1.447635 0.21669,-2.509704 0.44915,-3.160928 0.66411,-1.860313 0.7018,-3.901354 1.91804,-5.356519 1.2854,-1.537886 2.69574,-2.999056 5.21145,-2.999399 z m 69.52379,6.697811 c 1.21775,1.29423 -2.56084,5.817603 -4.39558,5.824396 -0.59398,0.0017 -0.93622,0.06696 -0.86115,-0.680134 0.13391,-1.332782 1.58298,-3.569447 2.40248,-4.067364 1.00668,-0.61164 1.54077,-0.841904 2.85425,-1.076898 z M 87.461034,45.845864 c 0,0 -0.40943,1.87755 -1.29784,3.008226 -1.39969,1.781408 -2.65722,3.00158 -3.51417,2.464718 -0.87274,-0.546766 0.11135,-1.918673 1.48222,-3.613499 0.8545,-1.056503 1.35449,-2.562236 3.195,-3.079994 z"
       style="fill:#000000;fill-opacity:1;stroke:#ffffff;stroke-width:0"
       id="path1" />
    <path
       d="m 444.25592,24.132756 c -1.75137,0.123759 -2.89521,0.742555 -4.58846,1.642621 -1.38199,0.731302 -3.05086,1.460733 -4.19843,2.837085 -0.82507,0.993824 -1.57701,2.705828 -1.5845,4.010924 -0.008,1.411981 0.4069,2.574565 1.04258,4.282817 0.44628,1.192589 1.63325,3.06773 2.09453,4.430954 0.48753,1.447609 0.67131,3.118357 0.60379,5.051627 -0.0412,1.241341 -0.4819,3.103354 -2.00076,3.849659 -1.78327,0.875691 -5.30852,0.913195 -7.53057,0.975075 -1.53011,0.04312 -4.58846,-1.713879 -5.2954,-0.05063 -0.33002,0.780058 0.075,1.335099 0.96757,1.818885 1.88078,1.020075 4.16282,1.177588 6.50674,1.237593 1.56763,0.04125 3.70341,0.256894 5.31041,-0.174389 1.14383,-0.307523 2.50892,-0.656298 3.42775,-1.563866 0.74067,-0.731302 1.4851,-1.717629 1.78137,-2.895215 0.33565,-1.329474 0.41255,-3.142733 0.18377,-4.522836 -0.31503,-1.903265 -1.06321,-3.632144 -1.70076,-5.606668 -0.53629,-1.659495 -2.02138,-3.568389 -1.7945,-5.372272 0.14063,-1.106334 0.68816,-2.175162 1.64824,-3.103356 0.73881,-0.714428 1.81327,-1.661374 3.09774,-2.053277 0.98069,-0.300022 2.95147,-1.085706 3.95653,-0.6713 0.8157,0.33565 1.29386,1.299472 1.79453,2.025149 0.87942,1.271346 2.17327,2.06453 3.17647,1.650122 0.33753,-0.140636 0.1218,-3.168984 -0.59254,-4.447828 -0.67505,-1.205715 -1.85827,-2.079529 -3.09959,-2.687073 -1.00883,-0.493163 -2.19768,-0.738807 -3.20651,-0.665676 z"
       fill="#1a1a1a"
       data-color="1"
       id="path5"
       style="display:inline;fill:#000000;stroke-width:1.87514" />
    <path
       d="m 420.55457,15.591496 c -0.77818,-0.613171 -1.60512,-1.207591 -2.49393,-1.050079 -0.58879,0.106882 -1.22821,0.633799 -1.31261,1.226341 -0.17625,1.261969 0.84946,2.473309 1.97079,3.281494 0.83253,0.600044 2.01013,1.126958 2.8577,0.624421 0.6938,-0.408779 0.68819,-1.441982 0.5063,-2.156409 -0.17253,-0.682552 -0.97508,-1.490735 -1.52825,-1.925768 z"
       fill="#1a1a1a"
       data-color="1"
       id="path6"
       style="display:inline;fill:#000000;stroke-width:1.87514" />
    <path
       d="m 317.50254,14.018255 c -0.9563,0.04875 -1.83763,0.54379 -2.66269,1.08383 -2.19768,1.434481 -3.7709,3.435253 -5.46979,5.668545 -2.10766,2.775207 -4.1628,6.257341 -5.89169,9.28194 -2.68517,4.699098 -4.90722,9.131928 -7.49307,14.401068 -0.60001,1.224468 -1.44009,4.389703 -2.42829,5.394777 -1.23009,1.248843 -2.72269,1.755131 -4.63533,1.991398 -2.11704,0.26252 -5.13038,0.74443 -6.92677,-0.343151 -1.70077,-1.027576 -2.31581,-3.075228 -2.89333,-5.036624 -0.69006,-2.349549 -0.27378,-4.691598 -0.0262,-7.131154 0.10867,-1.074455 0.51002,-3.22524 0.83066,-4.322196 0.24753,-0.845689 0.48754,-0.637547 0.2719,-1.46261 -0.30001,-1.149458 -1.16257,-2.162036 -2.25389,-2.475184 -0.69382,-0.198764 -1.8339,0.761307 -1.86952,0.525039 -0.0244,-0.166888 -0.73506,-2.04015 -1.85265,-3.320871 a 4.1965616,4.1965616 0 0 0 -2.64019,-1.400729 c -2.35517,-0.285022 -4.04654,2.152661 -5.75104,3.847787 a 35.522639,35.522639 0 0 0 -6.91928,9.731973 c -1.30696,2.732078 -2.69082,5.878561 -2.42267,8.893785 0.16877,1.901391 0.84007,3.755903 2.4883,5.156634 1.34072,1.143833 3.63028,2.383301 5.38165,2.188285 2.02141,-0.22689 3.79904,-1.63512 5.33289,-2.97397 1.76264,-1.537613 2.84459,-3.585266 4.21155,-5.608542 0.51568,-0.765056 1.17949,-2.805206 1.38575,-2.78458 0.2194,0.01876 0.6488,3.037725 1.39885,4.370948 0.73694,1.316348 1.47012,2.493936 2.95897,3.42213 1.50574,0.941319 3.86467,1.760756 5.67042,1.944521 2.22392,0.22689 6.15609,-0.811937 6.40922,-0.645049 0.29066,0.191263 -0.5044,1.025701 -0.83443,1.156961 -1.92389,0.761306 -3.64902,2.780831 -5.20538,4.640969 -2.08139,2.493936 -2.93084,4.850985 -4.19656,8.278741 -0.35816,0.971321 -1.36323,3.986544 -0.46504,5.207261 0.76319,1.036953 2.61019,1.957645 3.82716,1.638873 1.76452,-0.46316 2.47143,-2.297046 3.57214,-3.932169 1.81889,-2.700201 3.21211,-6.139205 4.56035,-9.133803 0.76317,-1.695125 2.04765,-5.010372 2.22767,-5.194135 0.18564,-0.187514 8.09308,-1.725129 12.48277,-2.857714 3.64718,-0.941319 7.56058,-1.809509 11.11958,-3.140858 3.3809,-1.265719 6.99803,-2.868962 9.96075,-4.487207 2.3008,-1.256344 5.66481,-4.054051 5.9742,-3.980922 0.27189,0.06188 0.33003,2.733954 1.07633,4.035301 0.64505,1.126959 1.62199,2.325172 2.78269,3.039599 1.05947,0.650675 2.25955,1.346352 3.57216,1.33135 a 7.8118304,7.8118304 0 0 0 3.94153,-1.14946 c 1.03884,-0.622547 2.25019,-1.631373 3.02086,-2.550188 1.18882,-1.406357 2.95334,-4.421581 3.26837,-4.444082 0.20438,-0.01506 0.39377,2.670198 1.28448,3.988422 0.70318,1.040702 1.70262,2.308295 2.91394,2.844585 1.7814,0.78756 3.82528,1.275095 5.78294,1.162587 2.58207,-0.144385 5.00662,-0.918818 7.37868,-2.036401 2.4358,-1.149461 4.67285,-2.69645 6.77487,-4.380327 1.36885,-1.096955 3.7034,-3.65652 3.93404,-3.502759 0.22878,0.150017 -0.46878,1.524489 -0.99381,3.075229 -0.5138,1.515111 -1.0876,3.056476 -1.02946,3.281494 0.16876,0.665674 0.53254,1.417605 0.96383,1.862012 0.88319,0.91132 2.23891,1.177587 2.79769,0.825063 0.8382,-0.528789 3.78404,-5.451031 6.06984,-7.883086 2.94396,-3.131483 5.91418,-6.126081 9.30445,-8.918163 1.70823,-1.406354 3.349,-3.178361 5.54666,-4.134681 1.3482,-0.58692 4.0428,-1.712003 4.76097,-1.149461 0.44066,0.345025 -3.61153,5.902939 -4.68411,8.719397 -1.14756,3.015225 -2.07014,5.199762 -2.03451,8.706273 0.0188,2.055151 0.99007,3.85716 2.79394,4.997244 1.07258,0.675051 2.32144,1.155087 3.94531,0.772558 2.3233,-0.543789 5.51667,-1.991398 6.75049,-4.033424 0.64692,-1.074456 1.78138,-3.225241 0.7013,-3.697775 -1.42134,-0.620672 -3.27211,1.852638 -5.07413,2.82396 -1.61075,0.866314 -3.40898,2.456431 -4.93348,1.503862 -0.94883,-0.59442 -0.85882,-2.133909 -0.75007,-3.245867 0.21379,-2.195788 1.35013,-4.211562 2.27268,-6.216086 0.9207,-2.004524 2.28205,-3.782156 3.23649,-5.769805 0.5813,-1.213214 1.49074,-2.336422 1.50574,-3.744652 0.0131,-1.316348 -0.26065,-2.683325 -1.3126,-3.56839 -0.90006,-0.755683 -1.96513,-1.065078 -3.22148,-0.978822 -1.38011,0.09376 -2.68896,0.601918 -4.07655,1.312596 -1.45512,0.750057 -3.15961,1.796385 -4.59785,2.868963 -2.52769,1.886391 -5.21478,4.200311 -7.58868,6.382974 -1.59201,1.462608 -4.45908,4.873488 -4.82849,4.639096 -0.3319,-0.208141 1.72886,-4.344697 3.27212,-6.688622 0.66567,-1.0107 2.07578,-2.143284 2.32517,-3.230866 0.20252,-0.881313 -0.28877,-1.738254 -0.89068,-2.415179 -0.46317,-0.519415 -1.09134,-1.125082 -1.94641,-0.768807 -1.39698,0.586918 -2.21266,2.760205 -3.1596,4.024048 -1.75139,2.334549 -3.89656,4.468458 -6.0342,6.557363 -1.95954,1.912644 -3.90967,4.054051 -6.20859,5.700424 -1.97078,1.410105 -4.16843,2.56144 -6.66613,3.587141 -1.31258,0.538165 -3.18585,1.515113 -4.82661,1.537614 -1.2826,0.01874 -3.33774,0.25502 -4.34657,-0.727552 -1.00506,-0.9807 -1.42698,-2.535191 -1.45135,-4.050302 -0.0395,-2.488309 0.67692,-5.171634 1.62011,-7.545561 0.65444,-1.644497 1.38199,-3.144609 2.52956,-4.762854 0.38816,-0.549415 1.24134,-1.503861 1.33885,-2.238917 0.1182,-0.900066 -0.46879,-1.727003 -1.19072,-2.274544 -0.46314,-0.35065 -1.08194,-0.487536 -1.66136,-0.525039 -0.31501,-0.01874 -0.63942,-0.03001 -0.92819,0.176264 -0.94507,0.673177 -1.08384,3.255241 -1.78139,3.060227 -0.13882,-0.03751 -1.60322,-3.347124 -3.15022,-4.110306 -0.99382,-0.489411 -2.23518,-0.211891 -3.32277,0 -2.31203,0.450034 -4.56408,1.216967 -6.54984,2.643949 -1.54137,1.106331 -2.69646,2.855837 -3.94906,4.412202 -1.68199,2.09078 -3.07521,4.695347 -4.9785,6.658617 -2.28203,2.353301 -5.08724,4.320322 -8.00307,5.90669 -4.1253,2.240791 -8.61628,3.806533 -13.19724,5.18476 -5.38165,1.621996 -16.62312,4.037175 -16.66063,3.69965 -0.0395,-0.345024 0.29629,-0.444407 0.62443,-0.834434 0.78569,-0.931946 2.03266,-1.606996 3.1165,-2.328925 a 43.784504,43.784504 0 0 0 3.34149,-2.520188 49.71932,49.71932 0 0 0 6.46924,-6.382975 c 2.02137,-2.370176 3.78402,-4.959741 5.42289,-7.607439 1.66514,-2.69645 3.34337,-5.430402 4.45908,-8.394998 0.90758,-2.405803 1.98579,-5.211013 1.77576,-7.506182 -0.13129,-1.428857 -0.67504,-2.06828 -1.77576,-2.985222 -0.55878,-0.468787 -1.36884,-0.650675 -2.09828,-0.61317 z m 0.89631,3.401502 c 0.44629,0.251268 0,1.110081 -0.36564,3.095856 -0.55317,3.026474 -2.99648,7.524933 -5.91044,12.00839 -4.92225,7.575562 -12.51091,14.202305 -12.82969,13.85353 -0.4238,-0.466911 3.87214,-8.706273 8.37435,-16.321213 3.00024,-5.070377 5.71543,-8.974415 7.96936,-10.973316 0.99381,-0.88319 2.11139,-2.0289 2.76206,-1.663247 z m 31.75173,11.963389 c 1.85453,0.03375 2.53521,2.070152 5.09851,1.621994 1.08008,-0.18939 -1.89388,1.582617 -2.12452,2.882089 -0.44629,2.505186 -4.04467,7.644944 -5.56166,9.478828 -0.88132,1.066955 -2.07016,2.452684 -3.25339,3.270244 -1.85636,1.284472 -3.75963,1.61262 -4.86035,0.506287 -0.70694,-0.710676 -1.23007,-3.0471 -0.8607,-5.062873 0.46505,-2.52769 2.08143,-4.920366 3.6434,-7.194912 2.27267,-3.307745 4.866,-5.556038 7.91871,-5.499783 z m -74.60428,4.639095 c 0.25127,0 -0.94883,6.339846 -3.75965,10.626413 -3.45025,5.263516 -8.73438,8.968791 -9.44132,8.835656 -1.35948,-0.253144 -1.53012,-1.950144 -2.06453,-3.592768 -0.61881,-1.893889 1.30885,-6.630492 4.00341,-10.963938 1.78139,-2.870837 4.20968,-5.919817 5.86357,-7.448054 0.68817,-0.633796 1.68763,-1.08383 1.74201,-1.021951 0.18563,0.206267 0.22877,3.197112 1.14572,3.920918 1.1738,0.926317 2.3814,-0.356276 2.51266,-0.356276 z m 13.70353,27.596423 c 0.32627,0.225017 -0.88132,2.441432 -2.35519,4.704726 -0.95631,1.470109 -1.61262,3.146484 -1.97639,2.962719 -0.40877,-0.208142 1.02569,-2.97397 1.75888,-4.406577 1.06697,-2.081404 2.14892,-3.555264 2.5727,-3.262742 z"
       fill="#1a1a1a"
       data-color="1"
       id="path7"
       style="display:inline;fill:#000000;stroke-width:1.87514" />
    <path
       d="m 226.48329,41.96533 c -2.32331,0.688176 -3.07336,6.394224 -3.18398,6.938015 -0.37316,1.800135 -0.61882,3.782155 -0.53443,5.158507 0.0769,1.271345 0.36753,2.872714 1.32386,4.040926 0.72943,0.892565 1.96889,2.117033 3.14273,2.703952 1.28447,0.643173 2.89708,1.336972 4.51345,1.417604 a 18.123222,18.123222 0 0 0 5.58791,-0.660049 c 2.01578,-0.585042 4.18534,-1.215089 6.0267,-2.362674 1.74764,-1.085707 3.52903,-2.439558 4.76097,-4.025926 1.14009,-1.466357 2.01017,-2.85021 2.65334,-4.676597 0.75568,-2.141407 1.15697,-4.57159 1.3426,-6.849882 0.14996,-1.820761 -0.0101,-5.541037 -0.0101,-5.541037 0,0 -0.20627,-5.267267 -0.23439,-7.841834 -0.0262,-2.443305 -0.25502,-4.738477 0.0674,-7.208035 0.3019,-2.306421 0.70691,-4.762852 1.67637,-6.908012 0.89442,-1.980149 2.0364,-3.836536 3.68091,-5.400402 1.21882,-1.1625857 2.39265,-2.4901848 4.40468,-2.9814705 1.09509,-0.27002 3.17837,-0.8344367 4.47033,-0.247516 0.73131,0.333772 1.98766,0.8550597 2.46581,1.6388691 0.39378,0.6487957 0.86256,1.3819764 1.05194,2.4208034 0.18003,0.984448 0.17253,2.28017 0.15373,3.982797 -0.008,0.695677 -0.33566,3.566513 0.36377,4.125306 0.80443,0.641298 2.1358,1.434481 2.99274,0.61317 0.63754,-0.609419 0.61317,-1.773881 0.59067,-2.647696 -0.0451,-1.878891 0.11443,-3.724027 -0.5063,-5.587917 -0.63004,-1.886389 -1.73451,-3.8702858 -3.09024,-5.0459952 -1.71573,-1.4888621 -3.58901,-2.4751856 -5.60666,-2.7808326 -2.90646,-0.438782 -5.00661,0.6469248 -7.61305,2.2501669 -2.56709,1.5788671 -4.6841,3.6340169 -6.11295,6.5536089 a 26.765738,26.765738 0 0 0 -2.53334,9.064426 c -0.27564,3.137108 0.0807,6.21046 0.11247,9.606337 0.043,4.252816 0.58879,9.28944 -0.16876,13.508504 -0.47629,2.657072 -1.2526,5.471657 -2.93834,7.701196 -1.66326,2.195788 -3.85715,3.995923 -6.71862,5.068502 -2.46207,0.924444 -6.18422,2.250167 -8.75878,1.359478 -1.33136,-0.459411 -2.71709,-1.38198 -3.29088,-3.163363 -0.74631,-2.306419 -0.56255,-5.876686 -0.06,-8.505631 0.22315,-1.164462 0.90007,-3.22524 0.98071,-4.151557 0.14619,-1.646373 -0.36378,-1.755131 -1.00509,-1.563866 z"
       fill="#1a1a1a"
       data-color="1"
       id="path8"
       style="display:inline;fill:#000000;stroke-width:1.87514" />
  </g>
</svg>
