<?xml version="1.0" encoding="UTF-8" standalone="no"?>
<!-- Created with Inkscape (http://www.inkscape.org/) -->

<svg
   width="500mm"
   height="100mm"
   viewBox="0 0 500 100"
   version="1.1"
   id="svg1"
   inkscape:version="1.3.2 (091e20e, 2023-11-25)"
   sodipodi:docname="eugenesafaris.svg"
   xmlns:inkscape="http://www.inkscape.org/namespaces/inkscape"
   xmlns:sodipodi="http://sodipodi.sourceforge.net/DTD/sodipodi-0.dtd"
   xmlns="http://www.w3.org/2000/svg"
   xmlns:svg="http://www.w3.org/2000/svg">
  <sodipodi:namedview
     id="namedview1"
     pagecolor="#ffffff"
     bordercolor="#000000"
     borderopacity="0.25"
     inkscape:showpageshadow="2"
     inkscape:pageopacity="0.0"
     inkscape:pagecheckerboard="0"
     inkscape:deskcolor="#d1d1d1"
     inkscape:document-units="mm"
     inkscape:zoom="0.4606101"
     inkscape:cx="749.00659"
     inkscape:cy="156.31442"
     inkscape:window-width="1312"
     inkscape:window-height="449"
     inkscape:window-x="0"
     inkscape:window-y="245"
     inkscape:window-maximized="0"
     inkscape:current-layer="layer1" />
  <defs
     id="defs1" />
  <g
     inkscape:label="Layer 1"
     inkscape:groupmode="layer"
     id="layer1">
    <path
       d="m 104.18125,20.478803 c -1.49966,0.0503 -2.52077,0.1695 -2.52077,0.1695 0,0 -8.231347,0.60265 -11.785797,2.46703 -1.88248,0.9874 -3.30377,2.33433 -2.65099,4.35736 0.30569,0.94737 1.89223,0.51796 2.24327,0.43873 0.62396,-0.14084 -0.0916,-1.08587 0.20877,-1.7632 0.47598,-1.07344 1.0677,-1.15947 1.76268,-1.42679 2.13408,-0.82086 6.38821,-0.57619 6.38821,-0.57619 0,0 -3.23828,5.88595 -4.80796,8.37623 -1.51854,2.40917 -4.74224,7.304208 -5.71384,9.670728 -1.83311,4.46493 -2.13748,6.87509 -1.02215,10.34924 0.60041,1.87023 1.81608,3.06959 3.82817,3.61632 3.7814,1.02749 7.18105,-1.48843 10.475287,-3.3166 1.29706,-0.71981 3.69382,-2.7497 3.69382,-2.7497 0,0 0.16662,2.61831 1.1467,3.55999 0.66643,0.64033 1.73402,0.94002 2.68974,1.02578 0.72702,0.0652 1.49711,-0.0819 2.15232,-0.4036 1.88586,-0.92599 4.70719,-4.19147 4.70719,-4.19147 l 2.01744,-2.74299 c 0,0 -0.6542,2.98981 0,4.24419 0.40457,0.77575 1.29394,1.7338 2.12854,1.99626 1.15468,0.36311 2.82924,-0.508 3.96098,-0.98805 1.90997,-0.81015 4.58059,-3.36104 4.58059,-3.36104 0,0 1.30235,2.04884 1.10122,2.97036 -0.31947,1.4637 -2.71296,1.32505 -3.31245,2.69803 -0.25207,0.5773 -0.52291,1.53855 0,1.88981 1.37068,0.92071 4.58575,-1.87328 4.58575,-1.87328 l 6.52826,-1.05781 c 0,0 -2.49602,5.62406 -4.60739,8.60432 -2.18451,3.08352 -6.76639,9.32785 -9.95529,9.43153 -0.81148,0.0264 -0.73274,-0.32404 -1.04808,-1.04473 -0.32466,-0.74198 0.65856,-1.80019 -0.13653,-2.05817 -0.97831,-0.31742 -1.86992,-0.90536 -2.32179,0.0186 -0.89172,1.82334 -0.18756,4.51482 1.55025,5.56349 2.02981,1.22488 4.03793,-0.58898 6.11353,-1.73457 5.28998,-2.9197 7.47391,-8.39084 10.16084,-13.54512 0.75194,-1.44242 2.76435,-5.85819 2.76435,-5.85819 0,0 6.6911,-0.31155 10.37526,-1.368 1.70618,-0.48926 5.28765,-1.5526 5.28765,-1.5526 0,0 2.46605,1.259 3.78011,1.15859 1.6926,-0.12935 3.16051,-1.29273 4.58575,-2.21485 2.91868,-1.88837 7.98605,-6.70709 7.98605,-6.70709 0,0 -1.67178,2.70594 -2.00142,4.45348 -0.21965,1.16441 -0.61998,2.82756 0.52193,3.55482 1.02157,0.65062 3.3684,-1.82704 4.21626,-2.36265 1.5745,-0.99463 3.39767,-3.30366 4.92578,-4.86533 2.94581,-3.01052 5.18726,-5.404838 5.18726,-5.404838 0,0 -1.54879,7.000578 -0.0816,9.990088 2.22459,4.46716 4.72436,5.0443 9.0759,3.7052 1.67517,-0.59131 3.34464,-2.02861 3.65299,-1.97559 0.3078,0.0529 0.30017,1.26205 1.35806,2.0345 1.19514,0.87268 3.51255,1.3145 4.74129,1.26142 4.1808,-0.18062 7.00661,-0.0834 6.67915,-2.42983 -0.32025,-2.29485 -3.79553,0.16441 -6.9334,-0.49713 -1.76309,-0.3717 -3.45674,-1.57724 -3.45146,-1.72185 0.0199,-0.54637 2.24294,-1.37228 3.26956,-3.05977 1.39922,-2.29994 1.63718,-5.60137 0.84646,-6.44146 -0.7031,-0.74699 -3.12415,-0.25695 -5.20328,1.73581 -0.95994,0.92006 -1.84541,2.66605 -2.31562,4.43435 -0.22768,0.85626 0.13624,2.00605 -0.30746,2.51975 -1.75507,2.0319 -4.97117,1.46896 -6.16653,1.26659 -2.54761,-0.43131 -2.53609,-8.17325 -2.97294,-11.816338 -0.38697,-3.2271 -1.35702,-2.42827 -1.35702,-2.42827 0,0 -13.02511,13.412608 -13.45649,13.412618 -0.62555,0 0.29685,-2.92444 0.80719,-4.28553 0.95731,-2.55321 4.04835,-4.83048 4.02454,-7.557158 -0.005,-0.51119 -0.39406,-1.00768 -0.68006,-0.80409 -0.5304,0.37758 -8.05736,8.058938 -8.05736,8.058938 0,0 -3.28091,3.68389 -5.48698,4.58784 -1.24499,0.51013 -4.02299,0.32814 -4.02299,0.32814 0,0 1.72992,-1.48108 2.01909,-2.62771 0.69718,-2.76448 2.00339,-7.06077 -0.52677,-8.983078 -0.97517,-0.7409 -2.22219,-0.60857 -3.24192,0 -2.15508,1.28613 -2.75053,3.279138 -3.59734,5.641648 -0.33311,0.92932 -0.58703,1.91921 -0.56999,2.90628 0.0222,1.28524 0.87229,3.75636 0.87229,3.75636 0,0 -4.62169,1.1619 -6.98231,1.42893 -1.92891,0.21819 -5.82203,0.13635 -5.82203,0.13635 0,0 3.16089,-6.08805 2.99981,-10.48412 -0.0675,-1.84159 -0.8038,-2.837468 -1.54305,-3.844718 -0.99332,-1.35341 -3.94755,0.49299 -3.94755,0.49299 0,0 -1.03881,-1.90037 -2.56624,-1.15962 -3.2009,1.55231 -7.22227,9.673828 -7.22227,9.673828 0,0 -4.74467,7.10414 -7.78141,5.82238 -1.90796,-0.80531 -1.02459,-3.4809 -0.80667,-5.98102 0.20765,-2.38221 3.1832,-8.215348 2.01899,-8.474938 -0.78325,-0.17465 -0.20034,-0.4633 -1.38285,0.38912 -0.80145,0.57774 -1.22662,2.640248 -1.71203,3.447338 -1.19875,1.99309 -1.92776,3.52136 -3.48557,5.69423 -1.5771,2.19978 -4.60329,6.5835 -7.10393,5.76347 -1.01532,-0.33296 -0.70039,-0.66012 -0.66249,-3.17862 0.01,-0.63216 1.91084,-2.10269 2.46754,-3.06855 0.4034,-0.69987 -0.46918,-0.96712 -0.53588,-1.26504 -0.10863,-0.48518 -2.50113,2.19693 -2.49493,1.76837 0.0484,-3.34626 3.1706,-7.19098 3.30056,-10.267068 0.0283,-0.66958 -0.0686,-0.80924 -0.48886,-0.98547 -1.36247,-0.5714 -3.09304,0.47141 -4.51908,0.85783 -4.19062,1.13553 -11.984977,4.136618 -12.477227,3.738268 -0.65179,-0.52745 9.085197,-15.296738 9.085197,-15.296738 0,0 2.52485,-0.7451 5.75157,-0.87178 2.6292,-0.10323 5.95228,0.4955 6.89257,-0.13798 1.65882,-1.11754 -2.29606,-2.12598 -4.27569,-2.41174 -1.91478,-0.27639 -3.89327,-0.2952 -5.39293,-0.24494 z m 1.74149,17.849548 c 0,0 -0.62947,2.71806 -1.01441,4.05815 -0.53513,1.86299 -0.85509,4.37386 -1.79833,5.5299 -1.62349,1.98976 -2.77572,2.36257 -6.741157,4.19561 -2.11205,0.9763 -5.26998,2.34183 -6.85796,0.68161 -2.34037,-2.44684 -0.93648,-8.61276 1.45262,-10.05313 z m 28.57005,-0.313098 c 0.33336,-0.17262 1.1284,-0.0548 1.1255,-0.04 -0.38996,1.999538 -4.07775,4.718388 -4.49326,4.463508 -0.51739,-0.31737 1.72209,-3.57138 3.36776,-4.423528 z m 3.47593,1.313038 c 1.11283,-0.10464 1.23279,1.5367 0.97306,3.20032 -0.59683,3.82283 -6.02399,10.5462 -8.3116,8.08633 -1.42843,-1.536 -0.20257,-4.6948 -0.20257,-4.6948 0,0 5.74533,-6.42299 7.54111,-6.59185 z m 20.6415,-1.491098 c 0.29116,-4e-5 0.3425,0.975708 0.30034,2.292888 -0.0282,0.88087 -0.12351,2.14232 -0.12319,2.52351 0.003,3.97843 -2.82758,5.97846 -3.92284,4.82082 -0.22104,-0.23363 -0.79133,-1.4826 -0.88384,-2.60198 -0.0731,-0.88431 0.13237,-1.53309 0.27438,-1.9309 0.40568,-1.1364 0.4287,-2.3832 1.17166,-3.27211 0.7852,-0.93944 1.64673,-1.832018 3.18349,-1.832228 z m 42.46965,4.091458 c 0.74388,0.7906 -1.56433,3.55377 -2.6851,3.55792 -0.36285,0.001 -0.57191,0.0409 -0.52605,-0.41547 0.0818,-0.81415 0.96699,-2.18045 1.46759,-2.48461 0.61494,-0.37363 0.9412,-0.51429 1.74356,-0.65784 z m -62.2119,6.38513 c 0,0 -0.2501,1.14693 -0.7928,1.83762 -0.85502,1.0882 -1.6232,1.83356 -2.14668,1.50561 -0.53313,-0.334 0.068,-1.17205 0.90543,-2.20736 0.52199,-0.64538 0.82742,-1.56518 1.95172,-1.88146 z"
       style="fill:#000000;fill-opacity:1;stroke:#ffffff;stroke-width:0"
       id="path1" />
    <path
       d="m 360.04955,35.050009 c -1.06985,0.0756 -1.76858,0.453601 -2.80293,1.00342 -0.84421,0.446727 -1.86366,0.89231 -2.56468,1.733076 -0.504,0.607092 -0.96333,1.652895 -0.96791,2.450132 -0.005,0.86253 0.24856,1.572712 0.63687,2.616223 0.27262,0.728511 0.9977,1.873969 1.27948,2.706715 0.29782,0.884293 0.41008,1.904895 0.36884,3.085861 -0.0252,0.758292 -0.29438,1.895731 -1.2222,2.351622 -1.08934,0.534929 -3.24279,0.557839 -4.60016,0.595639 -0.93469,0.02634 -2.80293,-1.046948 -3.23477,-0.03093 -0.2016,0.47651 0.0458,0.815565 0.59105,1.111093 1.1489,0.623128 2.54292,0.719347 3.97474,0.756002 0.95761,0.0252 2.26228,0.156928 3.24394,-0.106528 0.69873,-0.187855 1.53261,-0.400909 2.09389,-0.955311 0.45245,-0.446727 0.9072,-1.049239 1.08818,-1.768585 0.20504,-0.812129 0.25201,-1.919786 0.11226,-2.762842 -0.19244,-1.162638 -0.64948,-2.21875 -1.03893,-3.424917 -0.32761,-1.013728 -1.2348,-2.179804 -1.0962,-3.281733 0.0859,-0.67582 0.42037,-1.32873 1.00685,-1.895731 0.45131,-0.436419 1.10766,-1.014875 1.8923,-1.254275 0.59907,-0.183273 1.80295,-0.66322 2.41691,-0.410074 0.49828,0.205037 0.79037,0.793802 1.09621,1.237093 0.53721,0.77662 1.32758,1.261149 1.9404,1.008002 0.20618,-0.08591 0.0744,-1.935822 -0.36197,-2.717023 -0.41236,-0.736529 -1.13515,-1.270311 -1.89343,-1.641439 -0.61626,-0.301255 -1.34248,-0.451311 -1.95874,-0.406638 z"
       fill="#1a1a1a"
       data-color="1"
       id="path5"
       style="display:inline;stroke-width:1.14546;fill:#000000" />
    <path
       d="m 343.63172,29.832453 c -0.47537,-0.374565 -0.98051,-0.737675 -1.52346,-0.641456 -0.35967,0.06529 -0.75027,0.387165 -0.80182,0.749128 -0.10767,0.770893 0.5189,1.510858 1.20388,2.00455 0.50857,0.366546 1.22792,0.688419 1.74567,0.381437 0.42382,-0.249709 0.42039,-0.880856 0.30928,-1.317275 -0.10539,-0.416947 -0.59564,-0.910638 -0.93355,-1.176384 z"
       fill="#1a1a1a"
       data-color="1"
       id="path6"
       style="display:inline;stroke-width:1.14546;fill:#000000" />
    <path
       d="m 280.68084,28.871415 c -0.58417,0.02978 -1.12254,0.332182 -1.62654,0.662074 -1.34248,0.876274 -2.30351,2.098476 -3.3413,3.462715 -1.2875,1.695277 -2.54291,3.82239 -3.59903,5.670012 -1.64028,2.870514 -2.99765,5.578375 -4.57725,8.797108 -0.36653,0.747984 -0.8797,2.681515 -1.48336,3.29548 -0.75142,0.762874 -1.6632,1.072148 -2.83156,1.216475 -1.29323,0.160364 -3.13397,0.454746 -4.23132,-0.209619 -1.03894,-0.62771 -1.41465,-1.878549 -1.76744,-3.076697 -0.42153,-1.435257 -0.16724,-2.865933 -0.016,-4.356172 0.0664,-0.656347 0.31156,-1.970186 0.50743,-2.640278 0.1512,-0.516602 0.29782,-0.389455 0.16609,-0.893457 -0.18327,-0.702164 -0.71017,-1.320712 -1.37683,-1.512003 -0.42382,-0.121418 -1.12026,0.465056 -1.14202,0.320728 -0.0149,-0.101946 -0.44902,-1.246257 -1.13172,-2.028604 a 2.5635324,2.5635324 0 0 0 -1.6128,-0.855656 c -1.43869,-0.17411 -2.47189,1.314985 -3.51311,2.350478 a 21.699535,21.699535 0 0 0 -4.22674,5.944921 c -0.79838,1.668931 -1.64373,3.591007 -1.47993,5.432901 0.1031,1.161494 0.51317,2.29435 1.52002,3.150007 0.819,0.698728 2.21761,1.455875 3.28746,1.336747 1.23481,-0.138599 2.3207,-0.998837 3.25768,-1.816694 1.07673,-0.939274 1.73766,-2.190113 2.57269,-3.426062 0.31501,-0.467345 0.7205,-1.713602 0.8465,-1.701002 0.13402,0.01146 0.39633,1.85564 0.85451,2.670059 0.45017,0.804111 0.89804,1.523458 1.80753,2.090459 0.9198,0.575019 2.36079,1.075584 3.46386,1.18784 1.35852,0.138599 3.76054,-0.495984 3.91517,-0.394038 0.17755,0.116836 -0.30812,0.626565 -0.50973,0.706747 -1.17523,0.465055 -2.22905,1.698712 -3.17978,2.835005 -1.27145,1.523458 -1.79035,2.963297 -2.56353,5.057193 -0.21879,0.593346 -0.83275,2.43524 -0.28408,3.180933 0.46621,0.633438 1.59448,1.195857 2.33788,1.00113 1.07788,-0.282928 1.50971,-1.403185 2.1821,-2.402024 1.11109,-1.649458 1.96216,-3.750225 2.78575,-5.57952 0.4662,-1.035493 1.25084,-3.060661 1.36081,-3.172915 0.1134,-0.114546 4.94378,-1.053821 7.62529,-1.745677 2.22793,-0.575019 4.61849,-1.105366 6.79256,-1.91864 2.06527,-0.773184 4.27485,-1.752549 6.08467,-2.741078 1.40548,-0.767456 3.46043,-2.476478 3.64943,-2.431805 0.16609,0.0378 0.2016,1.670076 0.65749,2.465023 0.39404,0.68842 0.99082,1.420367 1.69985,1.856785 0.64719,0.397474 1.38028,0.822439 2.18211,0.813275 a 4.7719733,4.7719733 0 0 0 2.40774,-0.702165 c 0.63459,-0.380292 1.37456,-0.996548 1.84534,-1.557821 0.72621,-0.859094 1.80409,-2.700988 1.99653,-2.714733 0.12485,-0.0092 0.24054,1.63113 0.78464,2.436387 0.42955,0.635728 1.04007,1.410056 1.78003,1.737657 1.08819,0.481093 2.33673,0.778911 3.53259,0.710184 1.5773,-0.0882 3.05837,-0.561274 4.50738,-1.243966 1.48794,-0.702166 2.85448,-1.647167 4.13853,-2.675788 0.83618,-0.670092 2.26228,-2.23364 2.40317,-2.139713 0.13975,0.09164 -0.28636,0.931257 -0.60709,1.878549 -0.31386,0.925529 -0.66437,1.867095 -0.62886,2.00455 0.10309,0.406637 0.32531,0.865965 0.58877,1.137438 0.53951,0.556693 1.36767,0.719347 1.70901,0.504002 0.51203,-0.323019 2.31154,-3.329844 3.70785,-4.815501 1.79837,-1.912913 3.61277,-3.742208 5.68377,-5.447793 1.0435,-0.859092 2.04578,-1.941549 3.38826,-2.525732 0.82357,-0.358528 2.4696,-1.045802 2.90831,-0.702165 0.26918,0.210763 -2.20616,3.605898 -2.86136,5.326374 -0.70101,1.841895 -1.26458,3.176352 -1.24281,5.318357 0.0115,1.25542 0.6048,2.356204 1.70672,3.052641 0.6552,0.412365 1.41808,0.705602 2.41005,0.471929 1.41922,-0.332182 3.36994,-1.216475 4.12364,-2.463878 0.39518,-0.656347 1.08818,-1.970186 0.4284,-2.258841 -0.86825,-0.379146 -1.99882,1.131712 -3.09961,1.725058 -0.98395,0.529201 -2.08243,1.500548 -3.01369,0.918657 -0.57961,-0.36311 -0.52462,-1.30353 -0.45819,-1.982786 0.13059,-1.34133 0.82474,-2.572696 1.3883,-3.797189 0.56242,-1.224494 1.39402,-2.310387 1.97706,-3.524572 0.35509,-0.74111 0.91064,-1.427238 0.9198,-2.287477 0.008,-0.80411 -0.15922,-1.639149 -0.80182,-2.179804 -0.54982,-0.46162 -1.20043,-0.650619 -1.96789,-0.597928 -0.84306,0.05727 -1.64259,0.367691 -2.49022,0.801819 -0.88888,0.458183 -1.9301,1.097348 -2.80867,1.752549 -1.54407,1.15233 -3.18552,2.565823 -4.63566,3.899135 -0.9725,0.893456 -2.72389,2.977043 -2.94955,2.833861 -0.20275,-0.127146 1.0561,-2.654023 1.99882,-4.085845 0.40664,-0.617401 1.26802,-1.309257 1.42037,-1.973622 0.12371,-0.538364 -0.1764,-1.061839 -0.54409,-1.475349 -0.28293,-0.317292 -0.66666,-0.687273 -1.18899,-0.469637 -0.85337,0.358528 -1.35164,1.686113 -1.93009,2.45815 -1.06986,1.426094 -2.38027,2.729624 -3.68608,4.005663 -1.19701,1.168367 -2.38828,2.476478 -3.79261,3.482189 -1.20388,0.861384 -2.54635,1.564694 -4.07211,2.191259 -0.80181,0.328746 -1.94612,0.925529 -2.9484,0.939274 -0.7835,0.01145 -2.03891,0.155783 -2.65517,-0.444436 -0.61396,-0.599075 -0.87169,-1.548659 -0.88658,-2.474187 -0.0241,-1.520021 0.41351,-3.15917 0.98967,-4.609319 0.39977,-1.004566 0.84421,-1.920931 1.54522,-2.90946 0.23711,-0.335619 0.75829,-0.918656 0.81786,-1.367676 0.0722,-0.549819 -0.28637,-1.054966 -0.72737,-1.389439 -0.28292,-0.2142 -0.66092,-0.297819 -1.01487,-0.320728 -0.19243,-0.01145 -0.3906,-0.01833 -0.567,0.107673 -0.57731,0.41122 -0.66208,1.988513 -1.08819,1.869385 -0.0848,-0.02291 -0.97935,-2.04464 -1.92436,-2.510841 -0.60709,-0.298964 -1.36539,-0.129437 -2.02976,0 -1.41234,0.27491 -2.78804,0.743402 -4.00107,1.615095 -0.94157,0.675819 -1.64717,1.744531 -2.41234,2.69526 -1.02747,1.277184 -1.87854,2.868223 -3.04119,4.067516 -1.39401,1.437549 -3.10762,2.639133 -4.8888,3.608189 -2.52,1.368821 -5.26338,2.325278 -8.06173,3.167189 -3.28746,0.99082 -10.15448,2.466168 -10.17739,2.259986 -0.0241,-0.210763 0.18099,-0.271473 0.38144,-0.509727 0.47995,-0.569293 1.24168,-0.981657 1.90376,-1.422658 a 26.746418,26.746418 0 0 0 2.0412,-1.539494 30.371789,30.371789 0 0 0 3.95183,-3.899136 c 1.23479,-1.447857 2.31153,-3.029732 3.31266,-4.647118 1.01717,-1.647167 2.04234,-3.317242 2.72389,-5.12821 0.55441,-1.469621 1.21305,-3.183225 1.08475,-4.585264 -0.0802,-0.872838 -0.41236,-1.263439 -1.08475,-1.823567 -0.34134,-0.286365 -0.83618,-0.397474 -1.28177,-0.374564 z m 0.54753,2.077858 c 0.27262,0.153491 0,0.67811 -0.22336,1.89115 -0.33791,1.848767 -1.83044,4.596718 -3.61048,7.335505 -3.00683,4.627645 -7.64248,8.67569 -7.83721,8.462636 -0.25888,-0.28522 2.36536,-5.318357 5.1156,-9.970057 1.83274,-3.097316 3.49136,-5.482156 4.8682,-6.703214 0.60709,-0.53951 1.28978,-1.239384 1.68725,-1.01602 z m 19.39602,7.308015 c 1.13286,0.02062 1.54867,1.264584 3.1145,0.99082 0.65978,-0.115692 -1.15691,0.966765 -1.2978,1.760567 -0.27262,1.53033 -2.47074,4.670028 -3.39742,5.790284 -0.53837,0.651765 -1.26459,1.498258 -1.98738,1.997677 -1.13399,0.784639 -2.29663,0.985093 -2.96902,0.309273 -0.43184,-0.434127 -0.75141,-1.861367 -0.52577,-3.092732 0.28408,-1.544077 1.27147,-3.005679 2.22563,-4.395119 1.38829,-2.020586 2.97246,-3.393989 4.83726,-3.359625 z m -45.57314,2.833861 c 0.15349,0 -0.57961,3.872789 -2.29664,6.491303 -2.10764,3.215297 -5.33553,5.47872 -5.76737,5.397392 -0.83046,-0.154636 -0.9347,-1.191274 -1.26115,-2.194695 -0.37801,-1.156911 0.79953,-4.050336 2.44554,-6.697486 1.08819,-1.753694 2.57155,-3.616208 3.58185,-4.549755 0.42038,-0.387164 1.03091,-0.662074 1.06413,-0.624274 0.1134,0.126001 0.13975,1.953004 0.69988,2.395151 0.71704,0.565855 1.45472,-0.217636 1.5349,-0.217636 z m 8.371,16.857687 c 0.19931,0.137455 -0.53836,1.491386 -1.4387,2.873952 -0.58418,0.898038 -0.98509,1.922077 -1.20731,1.809822 -0.2497,-0.127147 0.62656,-1.816694 1.07444,-2.691824 0.65177,-1.271457 1.3127,-2.171786 1.57157,-1.993095 z"
       fill="#1a1a1a"
       data-color="1"
       id="path7"
       style="display:inline;stroke-width:1.14546;fill:#000000" />
    <path
       d="m 225.08037,45.943303 c -1.41922,0.420383 -1.8774,3.906008 -1.94498,4.238191 -0.22795,1.099639 -0.37801,2.310386 -0.32646,3.151151 0.047,0.77662 0.22451,1.75484 0.8087,2.46846 0.44558,0.545237 1.20272,1.293221 1.91978,1.651749 0.78464,0.392892 1.76973,0.81671 2.75711,0.865965 a 11.070841,11.070841 0 0 0 3.41346,-0.403201 c 1.23137,-0.357382 2.55667,-0.742255 3.6815,-1.443275 1.06757,-0.66322 2.15576,-1.49024 2.90831,-2.459297 0.69644,-0.895746 1.22794,-1.741093 1.62083,-2.856769 0.46162,-1.308111 0.70675,-2.792624 0.82015,-4.184353 0.0916,-1.112239 -0.006,-3.384825 -0.006,-3.384825 0,0 -0.126,-3.217589 -0.14318,-4.790301 -0.016,-1.49253 -0.15578,-2.89457 0.0412,-4.403136 0.18442,-1.408912 0.43183,-2.90946 1.02403,-4.219863 0.54638,-1.209603 1.24397,-2.343605 2.24854,-3.298916 0.74454,-0.710183 1.46159,-1.521167 2.69067,-1.821277 0.66895,-0.164945 1.94155,-0.509728 2.73077,-0.151199 0.44673,0.20389 1.21419,0.522327 1.50627,1.001129 0.24055,0.396327 0.52691,0.844201 0.6426,1.478784 0.10997,0.601365 0.10539,1.392876 0.0939,2.432951 -0.005,0.424965 -0.20504,2.178658 0.22222,2.520005 0.4914,0.391746 1.30468,0.876274 1.82816,0.374564 0.38945,-0.372273 0.37456,-1.083602 0.36082,-1.617385 -0.0275,-1.147748 0.0699,-2.274877 -0.30928,-3.413462 -0.38487,-1.152329 -1.05955,-2.364223 -1.88772,-3.082423 -1.04808,-0.909494 -2.1924,-1.512004 -3.42491,-1.698713 -1.77546,-0.268037 -3.05837,0.395183 -4.65055,1.374548 -1.56814,0.964475 -2.86135,2.219895 -3.73419,4.003371 a 16.350251,16.350251 0 0 0 -1.54752,5.53714 c -0.16838,1.916349 0.0493,3.793752 0.0687,5.868175 0.0263,2.597896 0.35967,5.674593 -0.10309,8.251871 -0.29095,1.623112 -0.76517,3.342443 -1.79493,4.704391 -1.01602,1.34133 -2.3562,2.440969 -4.10417,3.09617 -1.50399,0.56471 -3.77772,1.374548 -5.35043,0.830457 -0.81328,-0.280638 -1.65977,-0.844203 -2.01028,-1.932387 -0.4559,-1.408911 -0.34364,-3.589862 -0.0367,-5.195792 0.13631,-0.711329 0.54982,-1.970186 0.59908,-2.536041 0.0893,-1.005711 -0.22222,-1.072148 -0.61397,-0.955311 z"
       fill="#1a1a1a"
       data-color="1"
       id="path8"
       style="display:inline;stroke-width:1.14546;fill:#000000" />
  </g>
</svg>
